<svg id="图层_1" data-name="图层 1" xmlns="http://www.w3.org/2000/svg" viewBox="0 0 500 500"><defs><style>.cls-1{fill:#5d34f3;}</style></defs><path class="cls-1" d="M236.92,124.11A142.84,142.84,0,1,1,94.08,267,142.85,142.85,0,0,1,236.92,124.11m0-26.77A169.61,169.61,0,1,0,406.49,267v0A169.62,169.62,0,0,0,236.92,97.34Z"/><path class="cls-1" d="M261,134.82A108,108,0,1,1,153,242.88v-.18A108.14,108.14,0,0,1,261,134.82m0-26.77A134.76,134.76,0,1,0,395.74,242.81h0A134.75,134.75,0,0,0,261,108.05Z"/><path class="cls-1" d="M244.93,217a65.16,65.16,0,1,1-65.16,65.15h0A65.23,65.23,0,0,1,244.93,217m0-26.77a92,92,0,1,0,91.89,92v-.11A91.93,91.93,0,0,0,244.93,190.18Z"/><path class="cls-1" d="M414.54,90.21A18.76,18.76,0,1,1,395.78,109a18.74,18.74,0,0,1,18.76-18.75m0-26.77A45.53,45.53,0,1,0,460.06,109h0A45.52,45.52,0,0,0,414.54,63.44Z"/></svg>