<svg id="图层_1" data-name="图层 1" xmlns="http://www.w3.org/2000/svg" viewBox="0 0 500 160"><defs><style>.cls-1{fill:#5d34f3;}.cls-2{fill:#353538;}</style></defs><path class="cls-1" d="M73.57,45.44A39.22,39.22,0,1,1,34.35,84.66,39.22,39.22,0,0,1,73.57,45.44h0m0-7.35a46.57,46.57,0,1,0,46.56,46.58h0A46.57,46.57,0,0,0,73.57,38.09Z"/><path class="cls-1" d="M80.18,48.38A29.66,29.66,0,1,1,50.53,78.05h0A29.71,29.71,0,0,1,80.18,48.38m0-7.35a37,37,0,1,0,37,37h0a37,37,0,0,0-37-37h0Z"/><path class="cls-1" d="M75.77,70.93A17.89,17.89,0,1,1,57.88,88.82h0A17.9,17.9,0,0,1,75.77,70.93m0-7.35A25.25,25.25,0,1,0,101,88.85h0A25.24,25.24,0,0,0,75.79,63.58Z"/><path class="cls-1" d="M122.34,36.13a5.15,5.15,0,1,1-5.15,5.15,5.16,5.16,0,0,1,5.15-5.15m0-7.35a12.5,12.5,0,1,0,12.5,12.5h0A12.5,12.5,0,0,0,122.34,28.78Z"/><path class="cls-2" d="M142.92,64.16h8.3v43.9h-8.3Z"/><path class="cls-2" d="M159.73,75.59h8.15v3.33a19.63,19.63,0,0,1,5-3.25,12.09,12.09,0,0,1,4.6-.91,11.14,11.14,0,0,1,8.2,3.37c1.88,1.91,2.83,4.73,2.83,8.48v21.45h-8.06V93.84a35.69,35.69,0,0,0-.52-7.72,5.32,5.32,0,0,0-1.82-2.9,5,5,0,0,0-3.2-1,6,6,0,0,0-4.24,1.65,8.91,8.91,0,0,0-2.46,4.58,37.25,37.25,0,0,0-.35,6.59v13h-8.15Z"/><path class="cls-2" d="M216.28,80.13l-5,5q-3.08-3-5.58-3a3.48,3.48,0,0,0-2.15.58,1.73,1.73,0,0,0-.78,1.45,1.82,1.82,0,0,0,.49,1.21,9,9,0,0,0,2.44,1.5l3,1.5c3.15,1.55,5.3,3.13,6.48,4.74A9.88,9.88,0,0,1,213.7,106a12.14,12.14,0,0,1-8.52,2.9,13.52,13.52,0,0,1-11.34-5.55l5-5.46a11.87,11.87,0,0,0,3.36,2.7,7.5,7.5,0,0,0,3.42,1,4,4,0,0,0,2.59-.78,2.24,2.24,0,0,0,1-1.79c0-1.25-1.18-2.48-3.55-3.67L202.91,94Q195,90,195,84.07a8.62,8.62,0,0,1,3-6.58,10.77,10.77,0,0,1,7.6-2.73A13.12,13.12,0,0,1,216.28,80.13Z"/><path class="cls-2" d="M226.47,62.22a5,5,0,0,1,3.68,1.55,5.19,5.19,0,0,1,1.53,3.76,5,5,0,0,1-1.52,3.72,4.89,4.89,0,0,1-3.63,1.54,5,5,0,0,1-3.7-1.57,5.28,5.28,0,0,1,3.61-9ZM222.4,75.59h8.15v32.47H222.4Z"/><path class="cls-2" d="M261.94,75.59h8.12v27.82q0,8.24-3.31,12.11-4.46,5.27-13.4,5.26a23.37,23.37,0,0,1-8-1.2,14,14,0,0,1-8.8-9.13h9a7.41,7.41,0,0,0,3.07,2.07,12.73,12.73,0,0,0,4.45.71,11.7,11.7,0,0,0,5.28-1,6.22,6.22,0,0,0,2.82-2.62,13.17,13.17,0,0,0,.82-5.56,13.31,13.31,0,0,1-4.5,3.09,14.37,14.37,0,0,1-5.35.94,14.69,14.69,0,0,1-11-4.71,16.6,16.6,0,0,1-4.5-11.94q0-7.73,4.77-12.42a14.31,14.31,0,0,1,10.33-4.23,13.7,13.7,0,0,1,5.29,1,16.66,16.66,0,0,1,5,3.38Zm-8.44,6.78A8.46,8.46,0,0,0,247.14,85a9.77,9.77,0,0,0,.06,13.14,8.66,8.66,0,0,0,6.45,2.6,8.3,8.3,0,0,0,6.25-2.54,10.13,10.13,0,0,0,0-13.25A8.55,8.55,0,0,0,253.5,82.37Z"/><path class="cls-2" d="M278.33,63.06h8.08V78.88a18.46,18.46,0,0,1,4.81-3.09,12.47,12.47,0,0,1,4.89-1,11,11,0,0,1,8.15,3.34c1.89,1.93,2.84,4.76,2.84,8.51v21.45h-8V93.83a34.93,34.93,0,0,0-.54-7.64,5.39,5.39,0,0,0-1.83-3,5.21,5.21,0,0,0-3.21-1,6,6,0,0,0-4.25,1.64,8.6,8.6,0,0,0-2.47,4.48,37.32,37.32,0,0,0-.36,6.68v13h-8.08Z"/><path class="cls-2" d="M316,63.62h8.15v12H329v7h-4.83v25.45H316V82.61h-4.18v-7H316Z"/><path class="cls-2" d="M334.31,64.16H356.1v8.15H342.61v8H356.1v8H342.61v19.75h-8.3Z"/><path class="cls-2" d="M395.17,94.19H369a8.74,8.74,0,0,0,3,5.5,9.57,9.57,0,0,0,6.29,2,10.82,10.82,0,0,0,7.84-3.2l6.87,3.23a16.2,16.2,0,0,1-6.15,5.38,19.06,19.06,0,0,1-8.51,1.75A16.83,16.83,0,0,1,365.9,104a16.42,16.42,0,0,1-4.79-12,16.94,16.94,0,0,1,4.8-12.34,16,16,0,0,1,12-4.91,16.67,16.67,0,0,1,12.47,4.91q4.8,4.91,4.81,13ZM387,87.77a8.25,8.25,0,0,0-3.18-4.42,9.31,9.31,0,0,0-5.52-1.7,9.78,9.78,0,0,0-6,1.91,10.68,10.68,0,0,0-3,4.21Z"/><path class="cls-2" d="M434.29,94.19H408.12a8.74,8.74,0,0,0,3,5.5,9.56,9.56,0,0,0,6.28,2,10.9,10.9,0,0,0,7.85-3.2l6.86,3.23A16.33,16.33,0,0,1,426,107.1a19.06,19.06,0,0,1-8.51,1.75A16.88,16.88,0,0,1,405,104.08,16.41,16.41,0,0,1,400.24,92,17,17,0,0,1,405,79.67a16.07,16.07,0,0,1,12-4.91,16.69,16.69,0,0,1,12.48,4.91q4.8,4.9,4.8,13Zm-8.15-6.42A8.13,8.13,0,0,0,423,83.35a9.22,9.22,0,0,0-5.51-1.7,9.78,9.78,0,0,0-6,1.91,10.61,10.61,0,0,0-3,4.21Z"/><path class="cls-2" d="M464.85,63.06H473v45h-8.15v-3.43a16,16,0,0,1-4.78,3.27,13.26,13.26,0,0,1-5.2,1A14.45,14.45,0,0,1,444,104a17,17,0,0,1-4.59-12.13,17.47,17.47,0,0,1,4.44-12.33,14.15,14.15,0,0,1,10.79-4.8,13.76,13.76,0,0,1,5.48,1.1,15.07,15.07,0,0,1,4.74,3.31Zm-8.56,19.22A8.23,8.23,0,0,0,450,85a10.65,10.65,0,0,0,.05,13.77,8.23,8.23,0,0,0,6.26,2.72,8.36,8.36,0,0,0,6.36-2.67,9.8,9.8,0,0,0,2.53-7A9.46,9.46,0,0,0,462.67,85,8.43,8.43,0,0,0,456.29,82.28Z"/></svg>